<svg width="229" height="154" viewBox="0 0 229 154" fill="none" xmlns="http://www.w3.org/2000/svg">
<rect width="137.341" height="137.341" rx="6.0636" transform="matrix(0.83205 -0.5547 0.830139 0.557556 0.432236 76.6855)" fill="#CFD2F1"/>
<path d="M122.095 132.503L111.5 125.589L114.445 123.569C115.511 122.837 116.618 122.325 117.765 122.031C118.912 121.737 120.089 121.698 121.296 121.915C122.502 122.117 123.712 122.614 124.925 123.405C126.139 124.197 126.927 124.997 127.291 125.806C127.656 126.615 127.649 127.41 127.27 128.191C126.892 128.958 126.191 129.693 125.167 130.395L122.095 132.503ZM122.513 129.627L122.961 129.32C123.559 128.91 123.968 128.485 124.188 128.043C124.42 127.595 124.409 127.124 124.156 126.63C123.903 126.137 123.354 125.614 122.509 125.063C121.664 124.511 120.881 124.164 120.159 124.021C119.426 123.871 118.738 123.887 118.095 124.067C117.452 124.232 116.832 124.52 116.234 124.93L115.786 125.237L122.513 129.627ZM135.807 123.358C135.05 123.878 134.199 124.236 133.255 124.434C132.311 124.632 131.349 124.647 130.369 124.478C129.388 124.31 128.454 123.936 127.566 123.356C126.688 122.783 126.112 122.171 125.835 121.52C125.57 120.861 125.557 120.224 125.797 119.61C126.027 118.989 126.456 118.462 127.085 118.03C127.843 117.511 128.64 117.196 129.477 117.086C130.315 116.961 131.148 117.005 131.979 117.219C132.809 117.418 133.592 117.758 134.329 118.238C134.535 118.373 134.73 118.514 134.914 118.663C135.088 118.805 135.213 118.915 135.289 118.994L130.537 122.253C131.228 122.562 131.902 122.68 132.557 122.608C133.201 122.528 133.784 122.31 134.307 121.951C134.872 121.563 135.264 121.055 135.483 120.427L137.713 120.833C137.589 121.295 137.358 121.75 137.019 122.2C136.68 122.65 136.276 123.036 135.807 123.358ZM128.945 121.236L131.809 119.271C131.365 118.981 130.895 118.818 130.4 118.78C129.905 118.728 129.423 118.863 128.953 119.185C128.591 119.434 128.395 119.742 128.367 120.109C128.328 120.469 128.521 120.845 128.945 121.236ZM142.072 118.8L131.34 115.373L133.708 113.749L138.535 115.528C139.042 115.716 139.555 115.915 140.074 116.125C140.592 116.32 141.116 116.52 141.645 116.722L141.709 116.678C141.382 116.337 141.061 115.999 140.746 115.664C140.43 115.315 140.125 114.973 139.831 114.639L137.068 111.444L139.325 109.896L144.792 116.934L142.072 118.8ZM152.246 112.083C151.488 112.602 150.638 112.961 149.694 113.159C148.75 113.357 147.788 113.371 146.807 113.203C145.827 113.034 144.893 112.66 144.004 112.08C143.127 111.508 142.55 110.895 142.274 110.244C142.008 109.585 141.996 108.949 142.236 108.334C142.465 107.713 142.895 107.186 143.524 106.755C144.281 106.235 145.079 105.92 145.916 105.81C146.753 105.685 147.587 105.729 148.417 105.943C149.247 106.142 150.031 106.482 150.767 106.963C150.973 107.097 151.168 107.239 151.353 107.388C151.527 107.53 151.651 107.64 151.728 107.718L146.975 110.978C147.667 111.286 148.34 111.404 148.995 111.332C149.639 111.253 150.223 111.034 150.746 110.675C151.311 110.287 151.703 109.779 151.922 109.151L154.152 109.557C154.028 110.019 153.797 110.475 153.458 110.925C153.119 111.375 152.715 111.761 152.246 112.083ZM145.383 109.96L148.247 107.995C147.803 107.705 147.334 107.542 146.839 107.504C146.343 107.452 145.861 107.588 145.392 107.909C145.029 108.158 144.834 108.466 144.806 108.833C144.767 109.194 144.959 109.569 145.383 109.96ZM159.135 107.357C158.324 107.913 157.515 108.141 156.708 108.043C155.9 107.93 155.09 107.608 154.278 107.078L145.389 101.277L147.742 99.6638L156.727 105.528C156.976 105.691 157.192 105.775 157.375 105.78C157.569 105.778 157.714 105.743 157.81 105.678C157.863 105.641 157.906 105.612 157.938 105.59C157.969 105.553 158.012 105.51 158.065 105.459L160.124 106.417C160.05 106.54 159.928 106.682 159.758 106.842C159.61 107.002 159.402 107.174 159.135 107.357ZM164.962 103.36C164.29 103.821 163.492 104.15 162.57 104.348C161.648 104.531 160.691 104.542 159.7 104.381C158.698 104.213 157.753 103.839 156.865 103.259C155.966 102.672 155.383 102.049 155.118 101.391C154.852 100.732 154.85 100.095 155.112 99.4805C155.373 98.8516 155.84 98.3066 156.512 97.8456C157.184 97.3847 157.981 97.0625 158.904 96.8793C159.816 96.6889 160.767 96.6744 161.758 96.8356C162.749 96.9969 163.694 97.3709 164.593 97.9577C165.481 98.5375 166.064 99.1603 166.34 99.8262C166.606 100.485 166.613 101.125 166.362 101.747C166.101 102.361 165.634 102.899 164.962 103.36ZM163.028 102.098C163.508 101.769 163.665 101.386 163.499 100.949C163.322 100.505 162.886 100.057 162.193 99.6041C161.489 99.1445 160.808 98.8646 160.151 98.7642C159.494 98.6639 158.926 98.7783 158.446 99.1076C157.955 99.4442 157.793 99.8309 157.959 100.268C158.136 100.698 158.577 101.142 159.281 101.602C159.974 102.054 160.649 102.338 161.307 102.452C161.964 102.553 162.537 102.435 163.028 102.098ZM173.224 101.434L162.174 94.2227L164.095 92.9056L165.051 93.3155L165.115 93.2716C165.143 92.8756 165.256 92.4857 165.456 92.1021C165.656 91.7042 165.964 91.3625 166.38 91.0771C167.34 90.4186 168.471 90.143 169.773 90.2503C171.064 90.3506 172.333 90.8072 173.579 91.6202C174.5 92.2212 175.125 92.8435 175.455 93.4872C175.785 94.1309 175.867 94.7415 175.702 95.3189C175.536 95.882 175.165 96.3611 174.589 96.7562C174.248 96.9903 173.847 97.1712 173.386 97.2988C172.914 97.4194 172.404 97.4864 171.856 97.4999L173.22 98.2828L175.576 99.8204L173.224 101.434ZM172.095 95.8568C172.501 95.5787 172.658 95.2172 172.567 94.7722C172.476 94.3272 172.018 93.8361 171.195 93.2988C169.743 92.3514 168.559 92.1924 167.642 92.8216C167.183 93.1363 166.973 93.6063 167.013 94.2318L170.311 96.3845C170.72 96.3654 171.068 96.3075 171.358 96.2106C171.647 96.1138 171.893 95.9958 172.095 95.8568ZM183.154 90.8816C182.396 91.4011 181.546 91.7598 180.602 91.9577C179.658 92.1556 178.696 92.1703 177.716 92.0017C176.735 91.8331 175.801 91.459 174.913 90.8792C174.035 90.3066 173.458 89.6945 173.182 89.043C172.916 88.3842 172.904 87.7476 173.144 87.1333C173.373 86.512 173.803 85.9854 174.432 85.5537C175.19 85.0342 175.987 84.7193 176.824 84.6089C177.661 84.4842 178.495 84.5286 179.325 84.742C180.156 84.9411 180.939 85.281 181.676 85.7618C181.882 85.8961 182.077 86.0378 182.261 86.1867C182.435 86.3286 182.56 86.4387 182.636 86.5169L177.884 89.7767C178.575 90.0853 179.249 90.2035 179.904 90.1312C180.548 90.0518 181.131 89.8329 181.654 89.4743C182.219 89.0865 182.611 88.5784 182.83 87.95L185.06 88.356C184.936 88.8179 184.705 89.2738 184.366 89.7237C184.027 90.1737 183.623 90.5596 183.154 90.8816ZM176.291 88.759L179.156 86.7944C178.711 86.5045 178.242 86.3409 177.747 86.3034C177.252 86.2515 176.769 86.3866 176.3 86.7085C175.937 86.9573 175.742 87.2653 175.714 87.6325C175.675 87.9927 175.868 88.3682 176.291 88.759ZM187.688 87.5102L179.629 82.2502L181.549 80.9332L183.123 81.746L183.187 81.7021C182.933 81.1511 182.879 80.6517 183.024 80.204C183.159 79.7492 183.429 79.3827 183.834 79.1047C184.058 78.951 184.261 78.8336 184.443 78.7524C184.614 78.6641 184.78 78.601 184.941 78.5632L186.62 80.1734C186.438 80.2402 186.267 80.3142 186.107 80.3951C185.957 80.4688 185.797 80.5642 185.626 80.6812C185.327 80.8861 185.126 81.1762 185.023 81.5515C184.92 81.9124 185.032 82.3428 185.361 82.8426L190.04 85.8968L187.688 87.5102ZM196.47 81.7476C195.947 82.1062 195.306 82.4085 194.545 82.6547C193.795 82.8935 193.05 83.0424 192.308 83.1013L191.87 81.4013C192.503 81.3292 193.061 81.2293 193.543 81.1014C194.026 80.9592 194.432 80.7747 194.763 80.5478C195.115 80.3064 195.311 80.0919 195.352 79.9043C195.382 79.7098 195.294 79.5453 195.088 79.411C194.904 79.2908 194.672 79.2467 194.393 79.2787C194.125 79.3033 193.819 79.368 193.476 79.4727C193.123 79.5703 192.753 79.6788 192.367 79.7984C191.917 79.9331 191.435 80.0465 190.92 80.1388C190.415 80.2237 189.905 80.2404 189.388 80.1888C188.861 80.1301 188.375 79.9558 187.931 79.666C187.183 79.1781 186.854 78.592 186.943 77.9075C187.042 77.2157 187.546 76.5588 188.452 75.9369C189.06 75.5198 189.702 75.2246 190.377 75.0514C191.053 74.8638 191.686 74.7414 192.276 74.6842L192.65 76.3418C192.156 76.3907 191.711 76.4713 191.314 76.5838C190.918 76.6963 190.581 76.8476 190.303 77.0379C189.695 77.455 189.603 77.8014 190.025 78.0771C190.285 78.2468 190.635 78.2751 191.074 78.1621C191.514 78.0348 192.012 77.8816 192.569 77.7025C193.029 77.5461 193.517 77.4218 194.032 77.3295C194.547 77.2229 195.068 77.1989 195.596 77.2576C196.123 77.3019 196.636 77.4867 197.134 77.8119C197.86 78.2855 198.2 78.8788 198.155 79.5915C198.098 80.2972 197.537 81.0159 196.47 81.7476Z" fill="#9FA6E2"/>
<g clip-path="url(#clip0_2689_4357)">
<path d="M101.197 54.1056C101.687 53.922 102.226 53.8048 102.785 53.7609C103.343 53.717 103.909 53.7471 104.45 53.8495C104.991 53.952 105.497 54.1247 105.938 54.3579C106.38 54.5912 106.748 54.8803 107.023 55.2087L129.878 82.532C130.433 83.1949 130.572 83.9778 130.264 84.7084C129.956 85.439 129.228 86.0576 128.238 86.4279C127.248 86.7982 126.078 86.8901 124.986 86.6832C123.893 86.4763 122.968 85.9877 122.413 85.3248L99.5543 57.9988C99.2796 57.6705 99.1041 57.3093 99.038 56.9358C98.9718 56.5623 99.0163 56.1838 99.1688 55.822C99.3213 55.4603 99.5789 55.1222 99.9268 54.8272C100.275 54.5323 100.706 54.2861 101.197 54.1029L101.197 54.1056ZM95.0703 69.0677C96.204 69.0701 97.2905 69.3736 98.0912 69.9114C98.892 70.4492 99.3414 71.1774 99.3408 71.936L99.3321 80.5228L112.166 80.5448C113.301 80.547 114.389 80.8506 115.19 81.3891C115.991 81.9275 116.441 82.6565 116.439 83.4158C116.437 84.1751 115.985 84.9025 115.182 85.4379C114.378 85.9733 113.289 86.2728 112.155 86.2707L95.0407 86.2413C93.907 86.2389 92.8205 85.9355 92.0198 85.3977C91.219 84.8599 90.7696 84.1317 90.7702 83.3731L90.7879 71.9226C90.7883 71.5465 90.8996 71.1743 91.1152 70.8272C91.3308 70.4801 91.6465 70.1649 92.0444 69.8996C92.4423 69.6344 92.9145 69.4243 93.434 69.2813C93.9535 69.1383 94.5082 69.0666 95.0703 69.0677ZM117.27 59.9833C116.696 59.9959 116.123 59.9309 115.587 59.7923C115.051 59.6537 114.562 59.4443 114.149 59.1766C113.736 58.9089 113.408 58.5884 113.184 58.2341C112.96 57.8799 112.845 57.4992 112.846 57.1148C112.846 56.7303 112.963 56.35 113.188 55.9966C113.413 55.6431 113.742 55.3237 114.156 55.0574C114.57 54.7911 115.06 54.5834 115.596 54.4466C116.133 54.3099 116.706 54.2469 117.28 54.2615L134.391 54.2895C135.526 54.2916 136.613 54.595 137.414 55.1332C138.216 55.6713 138.665 56.4 138.664 57.1591L138.646 68.6095C138.646 68.9855 138.535 69.3576 138.319 69.7046C138.104 70.0516 137.788 70.3668 137.39 70.632C136.993 70.8972 136.521 71.1074 136.002 71.2504C135.482 71.3935 134.926 71.4667 134.364 71.4658C133.802 71.4649 133.246 71.39 132.727 71.2453C132.208 71.1006 131.737 70.889 131.34 70.6225C130.943 70.3561 130.628 70.04 130.414 69.6923C130.199 69.3446 130.089 68.9722 130.089 68.5962L130.104 60.008L117.27 59.9833Z" fill="#9FA6E2" fill-opacity="0.49"/>
</g>
<defs>
<clipPath id="clip0_2689_4357">
<rect width="58.2379" height="58.2379" fill="white" transform="matrix(0.83205 -0.5547 0.830139 0.557556 66.3159 70.1831)"/>
</clipPath>
</defs>
</svg>
