<svg width="169" height="36" viewBox="0 0 169 36" fill="none" xmlns="http://www.w3.org/2000/svg">
  <path fill-rule="evenodd" clip-rule="evenodd" d="M154.903 2.21001C156.009 0.736134 157.953 0 160.731 0C163.509 0 165.452 0.737737 166.559 2.21001C167.666 3.68388 168.22 6.29803 168.22 10.0525C168.22 13.8069 167.666 16.4211 166.559 17.8949C165.451 19.3688 163.509 20.105 160.731 20.105C157.953 20.105 156.009 19.3672 154.903 17.8949C153.796 16.4227 153.241 13.8069 153.241 10.0525C153.241 6.29803 153.796 3.68388 154.903 2.21001ZM165.067 3.47859C164.259 2.2485 162.814 1.63425 160.731 1.63425C158.647 1.63425 157.196 2.2485 156.381 3.47859C155.563 4.70869 155.154 6.90105 155.154 10.0541C155.154 13.2071 155.563 15.3995 156.381 16.6296C157.198 17.8597 158.647 18.4739 160.731 18.4739C162.814 18.4739 164.259 17.8597 165.067 16.6296C165.874 15.3995 166.277 13.2071 166.277 10.0541C166.277 6.90105 165.872 4.70869 165.067 3.47859ZM80.3912 10.3331L84.5306 11.2071V11.2087H84.5322C85.5265 11.398 86.2258 11.7428 86.6299 12.2512C87.0325 12.7596 87.2346 13.6224 87.2346 14.8429C87.2346 16.3264 86.9346 17.2935 86.3332 17.7441C85.7318 18.1948 84.5787 18.4305 82.8707 18.4482C81.2942 18.4482 79.3408 18.3904 77.0137 18.2782L76.9014 19.6574C78.7057 19.9397 80.6767 20.0792 82.8161 20.0792C83.9821 20.0792 84.9203 20.0183 85.634 19.8964C86.3461 19.7729 86.9844 19.5339 87.5489 19.1779C88.1102 18.8187 88.5144 18.2942 88.7581 17.5998C89.0003 16.9053 89.1238 15.9944 89.1238 14.8686C89.1238 13.2728 88.8287 12.0555 88.2369 11.2216C87.6451 10.3876 86.6251 9.82948 85.1801 9.54722L81.1258 8.70363C80.1491 8.51439 79.4578 8.16476 79.0553 7.64674C78.6527 7.12872 78.4507 6.28834 78.4507 5.12561C78.4507 4.29806 78.5228 3.65013 78.6624 3.18183C78.8019 2.71352 79.0841 2.3655 79.5059 2.13937C79.9277 1.91324 80.3559 1.77692 80.7874 1.73041C81.2188 1.6839 81.894 1.65984 82.8145 1.65984C84.1858 1.65984 85.9772 1.71758 88.1936 1.82984L88.3331 0.477859C86.6796 0.176349 84.8112 0.0271976 82.7279 0.0271976C81.5636 0.00795232 80.643 0.0512543 79.9678 0.153896C79.2942 0.256538 78.6752 0.476255 78.1107 0.814652C77.5461 1.15305 77.1532 1.66465 76.9271 2.34947C76.7009 3.03428 76.5887 3.94202 76.5887 5.06787C76.5887 6.62835 76.8806 7.82476 77.4627 8.65873C78.0449 9.49269 79.0216 10.0508 80.3912 10.3331ZM54.4837 19.7651V0.338526C56.1548 0.168526 58.5012 0.0851292 61.5243 0.0851292C64.0759 0.0851292 65.8272 0.521357 66.7767 1.39381C67.7245 2.26787 68.1992 3.91495 68.1992 6.33505C68.1992 8.75515 67.7486 10.4054 66.8472 11.2763C65.9459 12.1504 64.3229 12.585 61.9766 12.585C60.5877 12.585 59.263 12.5112 58.0056 12.3588V19.7651H54.4837ZM58.004 9.71582H61.4393C62.679 9.69657 63.5226 9.45761 63.9749 8.99732C64.4255 8.53864 64.65 7.65175 64.65 6.33666C64.65 5.02156 64.4239 4.13627 63.9749 3.67599C63.5226 3.21731 62.679 2.98476 61.4393 2.98476H58.004V9.71582ZM3.32155 11.0115H5.23646L5.23806 11.0099H5.23967L10.8144 19.7682H14.7581L9.37902 11.3756C9.01977 10.8111 8.51458 10.2594 7.85703 9.71409V9.6307C8.40232 9.16239 8.83373 8.67484 9.15289 8.16645L14.3892 0.338409H10.5594L5.23646 8.30758H3.32155C3.45306 7.63239 3.51881 6.88182 3.51881 6.05427V0.338409H0.00012207V19.7682H3.51881V12.9265C3.51881 12.2513 3.45145 11.613 3.32155 11.0115ZM43.2763 15.2343V0.338409H39.7544V15.7972C39.7544 18.4819 41.209 19.8243 44.1198 19.8243C47.4236 19.8243 49.9945 19.7409 51.8356 19.5709L51.6961 16.8397H44.9378C44.3171 16.8397 43.8857 16.7226 43.6419 16.4868C43.3981 16.2543 43.2763 15.8357 43.2763 15.2343ZM106.157 1.97097H99.6814V19.7681H97.8226V1.97097H91.3738V0.336716H106.157V1.97097ZM123.167 12.4197V0.338409H123.164H121.307V12.4197C121.307 14.6537 120.931 16.2206 120.181 17.1219C119.429 18.0233 118.142 18.4739 116.266 18.4739C114.39 18.4739 113.07 18.0233 112.31 17.1219C111.548 16.2206 111.169 14.6553 111.169 12.4197V0.338409H109.339V12.4197C109.339 15.2183 109.865 17.1989 110.917 18.3617C111.968 19.5244 113.827 20.1066 116.324 20.1066C118.821 20.1066 120.585 19.5244 121.618 18.3617C122.649 17.1973 123.167 15.2167 123.167 12.4197ZM128.264 19.7699V0.338526C130.591 0.168526 132.836 0.0851292 134.995 0.0851292C137.736 0.0851292 139.656 0.822867 140.753 2.29513C141.851 3.76901 142.4 6.3559 142.4 10.0542C142.4 13.7525 141.851 16.3378 140.753 17.8133C139.654 19.2872 137.736 20.0233 134.995 20.0233C132.873 20.0233 130.63 19.9399 128.264 19.7699ZM130.094 1.77391V18.3313C131.972 18.3682 133.603 18.3874 134.995 18.3874C137.041 18.3874 138.464 17.778 139.261 16.5559C140.058 15.3354 140.458 13.1671 140.458 10.051C140.458 6.93486 140.058 4.76174 139.261 3.53165C138.464 2.30155 137.041 1.6873 134.995 1.6873C134.657 1.6873 133.024 1.71457 130.094 1.7707V1.77391ZM146.904 19.7698H148.734V0.338409H146.904V19.7698ZM32.6949 19.9061C32.6437 19.9531 32.5926 19.9999 32.541 20.0457H32.5458V20.0425C32.5586 20.0697 32.5706 20.0972 32.5826 20.1248L32.5827 20.1251C32.5947 20.1528 32.6068 20.1804 32.6196 20.2077C32.839 20.1361 33.0612 20.0712 33.2832 20.0063C33.7723 19.8635 34.2607 19.7208 34.7173 19.5068C36.5905 18.6312 37.4085 17.1268 37.0829 15.0788C36.9546 14.2625 36.7205 13.4189 36.3307 12.6972C35.1263 10.4631 33.8962 8.23229 32.5442 6.08322C30.8458 3.38246 27.109 3.51718 25.6865 6.27407C24.9197 7.76112 24.0652 9.20314 23.2108 10.6449C22.8267 11.2929 22.4427 11.9409 22.0667 12.593C21.6979 13.2329 21.3242 13.2617 20.8463 12.686C20.41 12.1631 20.4116 11.3885 20.8767 10.5818C21.9272 8.75191 22.9793 6.9236 24.049 5.10492C24.2896 4.69596 24.5815 4.31265 24.8926 3.95501C26.2991 2.34001 28.2701 1.86689 30.2636 2.64152C30.3586 2.67949 30.4556 2.70914 30.5762 2.74599C30.6389 2.76516 30.708 2.78627 30.7865 2.81152C28.6198 -0.272548 25.4347 -0.450567 23.0499 2.29029L23.0244 2.31969L23.0244 2.31972C22.8689 2.49937 22.7114 2.68144 22.5928 2.88369C22.1896 3.57031 21.7769 4.25218 21.3643 4.93408L21.3642 4.93412C20.3783 6.5633 19.3922 8.19267 18.5352 9.88739C17.1127 12.7004 19.1062 15.7187 22.1694 15.5936C23.7094 15.533 25.2538 15.5711 26.7983 15.6091C27.7051 15.6315 28.612 15.6538 29.5179 15.6562C30.1578 15.6578 30.1851 15.9962 30.0696 16.4404C29.8884 17.1349 29.3319 17.4508 28.6919 17.4636C28.1359 17.4748 27.5795 17.4895 27.0231 17.5043C25.0166 17.5576 23.0094 17.6109 21.0131 17.4941C18.6331 17.3562 17.1223 15.7332 16.731 13.3596C16.7187 13.2888 16.6893 13.222 16.6505 13.1336L16.6505 13.1335L16.6504 13.1335C16.6285 13.0836 16.6036 13.0268 16.577 12.9586C16.0429 14.232 15.8152 15.4541 16.136 16.705C16.646 18.6937 18.176 19.6736 20.0267 19.8019C23.0755 20.0136 26.1628 20.1387 29.2035 19.9046C32.2908 19.6672 33.4872 16.3346 32.0535 14.0476C31.2041 12.6938 30.4374 11.2884 29.6705 9.88281L29.6705 9.88272L29.6704 9.88264L29.6704 9.88255L29.6703 9.88246L29.6703 9.88238L29.6702 9.88229L29.6702 9.88221L29.6701 9.88212L29.6701 9.88203L29.67 9.88195L29.67 9.88186L29.67 9.88178L29.6699 9.88169L29.6699 9.88161L29.6698 9.88152L29.6698 9.88143L29.6697 9.88135L29.6697 9.88126L29.6696 9.88118L29.6696 9.88109C29.2421 9.09764 28.8147 8.31413 28.3728 7.53945C28.1082 7.07596 28.2669 6.8803 28.6871 6.73596C29.3735 6.4986 30.0712 6.84181 30.5892 7.69342L30.9368 8.26584L30.9368 8.26592L30.9369 8.266C31.7149 9.54697 32.4927 10.8277 33.2451 12.1231C33.6653 12.848 34.0854 13.5873 34.3741 14.3667C35.1231 16.4019 34.5762 18.3056 32.9259 19.6993C32.8473 19.7664 32.771 19.8364 32.6949 19.9061ZM26.6207 9.55519C26.0813 10.4917 25.571 11.3766 25.0504 12.2796L25.0495 12.2811L24.5654 13.1206H28.6727C28.1997 12.2991 27.7475 11.5134 27.2832 10.7066L27.2668 10.678L26.6207 9.55519ZM37.102 29.423C37.4709 29.3444 38.0547 29.2867 38.6481 29.2867C39.4949 29.2867 40.0385 29.4326 40.4475 29.763C40.7875 30.0164 40.9928 30.4045 40.9928 30.9209C40.9928 31.5528 40.5742 32.1077 39.8846 32.3611V32.3804C40.5068 32.5359 41.2366 33.0507 41.2366 34.0242C41.2366 34.5888 41.0136 35.017 40.6817 35.3377C40.2246 35.7563 39.4852 35.9504 38.4155 35.9504C37.8317 35.9504 37.3843 35.9119 37.102 35.8718V29.423ZM37.9472 32.1093H38.7154C39.6103 32.1093 40.1364 31.6426 40.1364 31.0107C40.1364 30.2425 39.5526 29.941 38.6962 29.941C38.3065 29.941 38.0835 29.9699 37.9472 29.9987V32.1093ZM37.9472 35.2511C38.1124 35.28 38.3562 35.2896 38.6577 35.2896C39.5333 35.2896 40.34 34.9689 40.34 34.0146C40.34 33.1197 39.5718 32.7508 38.6481 32.7508H37.9472V35.2511ZM43.2187 33.2159V29.3347H42.3623V33.1966C42.3623 35.2302 43.3743 35.9984 44.7166 35.9984C46.1376 35.9984 47.1977 35.1709 47.1977 33.1581V29.3347H46.3412V33.2159C46.3412 34.6657 45.719 35.3072 44.7455 35.3072C43.8698 35.3072 43.2187 34.6849 43.2187 33.2159ZM49.5134 29.3347V35.891H48.6666V29.3347H49.5134ZM51.8391 29.3347H50.9939V35.891H54.6409V35.1805H51.8391V29.3347ZM55.5823 29.423L55.5839 29.4227V35.8702C56.0105 35.9199 56.5173 35.9488 57.1203 35.9488C58.3937 35.9488 59.4057 35.6184 60.0183 35.0057C60.631 34.4027 60.9613 33.5174 60.9613 32.4573C60.9613 31.3972 60.6213 30.6387 60.0376 30.103C59.4634 29.5689 58.5974 29.2867 57.3817 29.2867C56.712 29.2867 56.0984 29.3443 55.5839 29.4227V29.4214L55.5823 29.423ZM56.4291 35.2223C56.6424 35.2607 56.9551 35.2704 57.2855 35.2704C59.0945 35.2704 60.0777 34.2584 60.0777 32.4878C60.0873 30.9418 59.2116 29.9587 57.4218 29.9587C56.984 29.9587 56.6536 29.9971 56.4291 30.0469V35.2223ZM62.0807 34.7746C61.7407 34.7746 61.4969 35.028 61.4969 35.3872C61.4969 35.7369 61.731 35.9999 62.071 35.9999C62.4319 35.9999 62.6548 35.7465 62.6548 35.3872C62.6548 35.028 62.4207 34.7746 62.0807 34.7746ZM71.3311 33.0138L71.3273 32.9426C71.28 32.043 71.2239 30.9783 71.2333 30.1831H71.2044C70.9799 30.9513 70.7088 31.7692 70.3768 32.6737L69.2189 35.854H68.5774L67.5173 32.7315C67.2062 31.8077 66.9432 30.9609 66.7587 30.1831H66.7395C66.7202 30.9994 66.6721 32.0996 66.6128 33.0811L66.438 35.8925H65.6313L66.0883 29.3363H67.1677L68.2871 32.507C68.5598 33.3137 68.7827 34.0338 68.9479 34.7154H68.9767C69.1419 34.0546 69.3761 33.3345 69.668 32.507L70.8355 29.3363H71.9149L72.3238 35.8925H71.4963L71.3311 33.0138ZM73.9054 35.8925L74.587 33.8301H76.9109L77.6117 35.8925H78.5163L76.279 29.3363H75.2574L73.0297 35.8925H73.9054ZM76.0962 31.2817L76.7377 33.1693H74.765L75.4065 31.272C75.5332 30.8727 75.6391 30.475 75.7369 30.0853H75.7562L75.7593 30.0975C75.8545 30.4737 75.9518 30.8581 76.0962 31.2817ZM79.48 35.8925V29.3363H80.4038L82.5048 32.6529C82.9907 33.4211 83.3708 34.1123 83.6819 34.7827L83.7012 34.7731C83.6242 33.8974 83.6033 33.1004 83.6033 32.0787V29.3363H84.4004V35.8925H83.544L81.4623 32.5663C81.0052 31.8366 80.5674 31.0876 80.237 30.3771L80.2081 30.3868C80.2563 31.2143 80.2755 32.0018 80.2755 33.0907V35.8925H79.48ZM86.2593 35.8925L86.9409 33.8301H89.2648L89.9657 35.8925H90.8702L88.6329 29.3363H87.6113L85.3837 35.8925H86.2593ZM88.4485 31.2817L89.09 33.1693H87.1173L87.7589 31.272C87.8856 30.8727 87.9914 30.475 88.0892 30.0853H88.1085L88.1118 30.0982L88.1118 30.0984L88.112 30.0991C88.2071 30.4748 88.3043 30.8587 88.4485 31.2817ZM96.6774 35.6006C96.2973 35.7369 95.5484 35.9598 94.6647 35.9598C93.6719 35.9598 92.8556 35.7065 92.2141 35.0938C91.6496 34.5485 91.3 33.6729 91.3 32.6529C91.3096 30.6979 92.6519 29.2673 94.8507 29.2673C95.6093 29.2673 96.2027 29.4325 96.485 29.5688L96.2813 30.26C95.9317 30.1045 95.4938 29.9778 94.8315 29.9778C93.2357 29.9778 92.1949 30.9705 92.1949 32.6144C92.1949 34.2582 93.1972 35.2606 94.724 35.2606C95.2789 35.2606 95.6574 35.182 95.8531 35.0858V33.1308H94.5203V32.4492H96.6806V35.6006H96.6774ZM98.8185 32.8197H101.367V32.1205H98.8185V30.0484H101.513V29.3379H97.9717V35.8942H101.659V35.1837H98.8185V32.8197ZM102.485 35.3872C102.485 35.028 102.728 34.7746 103.068 34.7746C103.408 34.7746 103.643 35.028 103.643 35.3872C103.643 35.7465 103.42 35.9999 103.059 35.9999C102.719 35.9999 102.485 35.7369 102.485 35.3872ZM108.194 35.2896C107.61 35.2896 107.055 35.0956 106.677 34.8614V34.8598L106.464 35.5703C106.813 35.8044 107.504 35.9889 108.136 35.9889C109.682 35.9889 110.431 35.1132 110.431 34.1012C110.431 33.139 109.867 32.6033 108.759 32.1751C107.854 31.8255 107.455 31.524 107.455 30.9113C107.455 30.4639 107.795 29.9282 108.69 29.9282C109.283 29.9282 109.721 30.1223 109.934 30.2393L110.168 29.5481C109.876 29.3829 109.389 29.2273 108.718 29.2273C107.445 29.2273 106.598 29.9859 106.598 31.0075C106.598 31.9329 107.261 32.4862 108.33 32.8663C109.216 33.2063 109.565 33.5575 109.565 34.1702C109.565 34.8325 109.06 35.2896 108.194 35.2896ZM116.171 35.6793C115.86 35.8349 115.238 35.9904 114.439 35.9904C112.592 35.9904 111.2 34.8229 111.2 32.6738C111.2 30.5248 112.59 29.2305 114.624 29.2305C115.44 29.2305 115.957 29.4053 116.179 29.5224L115.976 30.2136C115.655 30.0581 115.198 29.941 114.653 29.941C113.116 29.941 112.095 30.9225 112.095 32.645C112.095 34.2503 113.018 35.2816 114.614 35.2816C115.131 35.2816 115.655 35.1741 115.995 35.0089L116.17 35.6793H116.171ZM117.65 35.8925L118.33 33.8301H120.656L121.357 35.8925H122.261L120.024 29.3363H119.002L116.775 35.8925H117.65ZM119.838 31.2817L120.479 33.1693H118.507L119.148 31.272C119.275 30.8727 119.381 30.475 119.479 30.0853H119.498L119.501 30.0982L119.501 30.0984L119.501 30.0991C119.596 30.4748 119.694 30.8587 119.838 31.2817ZM123.225 29.3347H124.07V35.1805H126.872V35.891H123.225V29.3347ZM128.66 32.8197H131.208V32.1205H128.66V30.0484H131.354V29.3379H127.813V35.8942H131.5V35.1837H128.66V32.8197ZM0.146211 30.4833H34.3211V34.1233H0.146211V30.4833ZM168.368 30.4833H134.193V34.1233H168.368V30.4833Z" fill="black"/>
  </svg>
  